<svg width="100" height="100" viewBox="0 0 26.458 26.458" xml:space="preserve" xmlns="http://www.w3.org/2000/svg"><path style="fill:#000;stroke-width:.0390145" d="M10.353 21.053a8.297 8.297 0 0 1-3.981-3.149c-.311-.464-.776-1.418-.947-1.944a8.054 8.054 0 0 1 .004-5.051c1.015-3.084 3.758-5.26 7.032-5.58 2.414-.235 4.872.652 6.604 2.384 1.698 1.698 2.572 4.123 2.334 6.478a9.384 9.384 0 0 1-.37 1.78c-.171.518-.639 1.475-.946 1.933a8.095 8.095 0 0 1-3.227 2.816c-.935.454-1.28.532-1.479.333-.08-.08-.082-.123-.102-1.573-.02-1.432-.024-1.501-.11-1.745-.05-.14-.16-.355-.245-.479-.102-.15-.137-.23-.103-.24.027-.007.234-.043.459-.08.794-.128 1.556-.448 2.036-.854.534-.453.922-1.18 1.064-1.995.225-1.287.03-2.303-.594-3.08l-.152-.189.072-.257c.097-.351.095-.974-.005-1.393-.119-.494-.138-.523-.351-.523-.398 0-1.028.23-1.655.602l-.414.247-.303-.07c-.615-.142-.927-.173-1.746-.173-.82 0-1.132.03-1.747.173l-.303.07-.414-.247c-.627-.373-1.257-.602-1.654-.602-.214 0-.233.029-.351.523-.1.419-.103 1.042-.005 1.393l.07.257-.15.189c-.502.625-.734 1.42-.679 2.328.088 1.45.55 2.381 1.487 2.993.447.292 1.1.525 1.756.627.506.08.474.052.31.276-.143.195-.327.645-.329.803-.002.206-.935.36-1.388.23-.42-.12-.717-.362-1.008-.818a2.012 2.012 0 0 0-.732-.686c-.477-.254-1.068-.17-.841.12.026.033.144.131.263.218.37.272.597.557.837 1.051.256.525.464.762.835.95.387.195.687.247 1.273.222.278-.012.555-.033.614-.047l.107-.026v.826c0 .492-.016.857-.04.902-.053.098-.24.193-.377.19a1.915 1.915 0 0 1-.41-.113zm-.128-2.395c-.104-.076-.05-.181.09-.181.063 0 .137.028.166.062.044.054.04.071-.023.117-.093.068-.142.069-.233.002zm.603-.064c-.097-.062.005-.176.157-.176.149 0 .187.06.096.152-.071.07-.166.08-.253.024zm-1.287-.058c-.069-.083-.02-.177.093-.177.117 0 .224.098.194.177-.03.075-.225.074-.287 0zm-.539-.301a.222.222 0 0 1-.046-.137c0-.068.022-.09.09-.09.114 0 .183.07.183.184 0 .067-.022.09-.09.09a.222.222 0 0 1-.137-.047zm-.405-.52c-.034-.076-.034-.11.002-.146.068-.068.178.013.193.14.01.084-.004.104-.069.104-.049 0-.099-.039-.126-.098zm-.325-.452c-.04-.125.04-.18.136-.094.108.097.1.176-.016.176-.062 0-.103-.028-.12-.082zm-.352-.311c-.015-.024-.007-.063.018-.087.049-.05.162 0 .19.083.019.058-.172.062-.208.004z"/><circle style="fill:none;stroke:#000;stroke-width:1.5;stroke-linecap:round;stroke-linejoin:round;stroke-dasharray:none" cx="13.229" cy="13.229" r="12.259"/></svg>