<svg width="100" height="100" viewBox="0 0 26.458 26.458" xml:space="preserve" xmlns="http://www.w3.org/2000/svg"><circle style="fill:none;stroke:#000;stroke-width:1.5;stroke-linecap:round;stroke-linejoin:round;stroke-dasharray:none" cx="13.229" cy="13.229" r="12.259"/><path d="M19.843 19.843h-2.718v-4.63c0-1.268-.482-1.978-1.487-1.978-1.093 0-1.664.738-1.664 1.979v4.63h-2.62v-8.82h2.62v1.188s.788-1.457 2.66-1.457c1.87 0 3.21 1.142 3.21 3.505zM8.23 9.87a1.621 1.621 0 0 1-1.615-1.627c0-.899.723-1.628 1.615-1.628s1.615.73 1.615 1.628c0 .899-.723 1.627-1.615 1.627zm-1.353 9.974H9.61v-8.819H6.877Z" style="fill:#000;fill-opacity:1;stroke-width:.961542"/></svg>