<svg width="100" height="100" viewBox="0 0 26.458 26.458" xml:space="preserve" xmlns="http://www.w3.org/2000/svg"><circle style="fill:none;stroke:#000;stroke-width:1.5;stroke-linecap:round;stroke-linejoin:round;stroke-dasharray:none" cx="13.229" cy="13.229" r="12.259"/><g data-name="Layer 2"><g data-name="Layer 1"><path d="M14.246 13.23c0 2.489-2.005 4.507-4.477 4.507-2.473 0-4.477-2.019-4.477-4.508 0-2.49 2.004-4.508 4.477-4.508 2.473 0 4.477 2.018 4.477 4.508M19.157 13.23c0 2.343-1.002 4.243-2.238 4.243-1.237 0-2.239-1.9-2.239-4.244 0-2.343 1.002-4.244 2.239-4.244 1.236 0 2.238 1.9 2.238 4.244M21.166 13.23c0 2.098-.352 3.8-.787 3.8-.435 0-.787-1.701-.787-3.8 0-2.1.352-3.803.787-3.803.435 0 .787 1.702.787 3.802"/></g></g></svg>