<svg width="100" height="100" viewBox="0 0 26.458 26.458" xml:space="preserve" xmlns="http://www.w3.org/2000/svg"><circle style="fill:none;stroke:#000;stroke-width:1.5;stroke-linecap:round;stroke-linejoin:round;stroke-dasharray:none" cx="13.229" cy="13.229" r="12.259"/><path d="M21.166 8.306a6.503 6.503 0 0 1-1.87.512 3.262 3.262 0 0 0 1.432-1.801 6.524 6.524 0 0 1-2.068.79 3.26 3.26 0 0 0-5.55 2.97 9.246 9.246 0 0 1-6.713-3.403 3.261 3.261 0 0 0 1.007 4.349 3.245 3.245 0 0 1-1.474-.408c-.036 1.51 1.046 2.92 2.612 3.235-.458.124-.96.153-1.471.055a3.26 3.26 0 0 0 3.043 2.262 6.548 6.548 0 0 1-4.822 1.35 9.22 9.22 0 0 0 4.992 1.462c6.047 0 9.464-5.107 9.257-9.687a6.63 6.63 0 0 0 1.625-1.686z" style="stroke-width:.661449"/></svg>