<svg width="100" height="100" viewBox="0 0 26.458 26.458" xml:space="preserve" xmlns="http://www.w3.org/2000/svg"><path style="fill:#000;stroke-width:.0992192" d="M15.022 20.943c-.077-.122-.775-1.384-1.551-2.803-.777-1.418-1.5-2.74-1.609-2.936l-.196-.356 2.701-4.778 2.701-4.778h1.625c.893 0 1.624.018 1.624.041 0 .023-1.206 2.173-2.68 4.778l-2.68 4.736 1.737 3.111c.956 1.711 1.738 3.133 1.738 3.16 0 .027-.736.049-1.635.049-1.588 0-1.639-.007-1.775-.224zm-7.498-6.758c.76-1.33 1.383-2.465 1.383-2.522 0-.058-.215-.477-.477-.931-.262-.455-.667-1.173-.9-1.596l-.423-.769 1.669.004 1.669.004.92 1.65.92 1.65-1.403 2.464-1.404 2.464H6.141Z"/><circle style="fill:none;stroke:#000;stroke-width:1.5;stroke-linecap:round;stroke-linejoin:round;stroke-dasharray:none" cx="13.229" cy="13.229" r="12.259"/></svg>