<svg width="100" height="100" viewBox="0 0 26.458 26.458" xml:space="preserve" xmlns="http://www.w3.org/2000/svg"><path style="fill:#000;stroke-width:.22576" d="M6.904 18.408c-.394-.172-.867-.549-1.05-.838-.463-.727-.685-3.428-.493-5.989.143-1.904.23-2.222.785-2.842.617-.69.66-.702 3.7-.917 1.942-.137 4.366-.14 6.579-.006 3.39.205 3.524.232 4.123.83 1.205 1.054.619 3.04.619 4.519 0 4.451-.144 4.92-1.635 5.334-1.333.37-11.74.295-12.628-.091zm7.885-4.362c.59-.338 1.072-.666 1.072-.73 0-.097-3.38-2.22-3.891-2.443-.095-.041-.173 1.057-.173 2.44v2.515l.96-.584c.528-.322 1.442-.86 2.032-1.198z"/><circle style="fill:none;stroke:#000;stroke-width:1.5;stroke-linecap:round;stroke-linejoin:round;stroke-dasharray:none" cx="13.229" cy="13.229" r="12.259"/></svg>